{"title":"Marathon Man.(1976).Rip.H263.1080p@DD+ Edition-(US,FR)+Subs.mkv","uid":11222733,"size":13010448360,"categoryP":"video","categoryS":"hd___movies","magnet":"?xt=urn:btih:cf74547ee0d0663e5d6278debaef810e404c7533&amp;dn=Marathon+Man.%281976%29.Rip.H263.1080p%40DD%2B+Edition-%28US%2CFR%29%2BSubs.mkv&amp;tr=udp%3A%2F%2Ftracker.openbittorrent.com%3A80&amp;tr=udp%3A%2F%2Fopen.demonii.com%3A1337&amp;tr=udp%3A%2F%2Ftracker.coppersurfer.tk%3A6969&amp;tr=udp%3A%2F%2Fexodus.desync.com%3A6969","seeders":2,"leechers":2,"uploader":"Tyr3ll","files":-1,"time":1413405548,"description":"Marathon Man (1976) Dolby Digital plus edition - 1080p\n\nGenre :\n125 min   -  Crime | Mystery | Thriller  -  \n\nSource : Original BD 50 reconverted in BD25 x264-1 pass\n\nFinal Purpose : Master Dubbing Rip with Audio reconvertion to DD+ aka E-AC3\n\nLanguage : (US) English and French\n\nSubtitles : English,French,Swedish,Finnish,Portuguese,Norwegian,Dutch,Japanese,Italian,\nSpanish,German,Danish.\n\n\nReencoding/Video codec : V_MS/VFW/FOURCC / H263 @ 12000 Kbps @ 1080p @ 16/9\n\nFormat contener : MKV\n\nFinal Size : 12,1 Go\n\nAnyway do not expect a top quality as it is an old movie and original quality from BD50 is not so far really exceptional (it has been just just remastered from original MPEG2 version of this movie from its respective DVD content)\n\nQuality : Acceptable/Medium-Normal (It's up to you so...)\n\nAudio changment :\n\nEnglish sound track has been downmixed from DTS-HD MA 5.1 to DD+ 5.1/768 Kbps/48 Hz/32 bits.\n\nFrench sound track has been upmixed from AC3-2.0/192 Kbps/48 Hz/16 bits \nto DD+ 2.0/768 Kbps/48 Hz/32 bits\n\nSee imdb right here : &lt;a href=&quot;\nhttp://www.imdb.com/title/tt0074860/&quot; rel=&quot;nofollow&quot; target=&quot;_NEW&quot;&gt;\nhttp://www.imdb.com/title/tt0074860/&lt;/a&gt;\n\n______________________________________________________________________\n\n\nSee below for more details :\n\nGeneral\nUnique ID                      : 128778899302395930766037042972926716197 (0x60E1E9F13B9C88C9EBAABD48B430A925)\n\nComplete name                  : C:Marathon Man.(1976).Rip.H263.1080p@DD+ Edition-(US,FR)+Subs.mkv\n\nFormat                         : Matroska\nFormat version                 : Version 4 / Version 2\nFile size                      : 12.1 GiB\nDuration                       : 2h 5mn\nOverall bit rate               : 13.8 Mbps\nEncoded date                   : UTC 2014-10-15 13:11:50\nWriting application            : Lavf56.7.104\nWriting library                : Lavf56.7.104\n\nVideo\nID                             : 1\nFormat                         : H.263\nCodec ID                       : V_MS/VFW/FOURCC / H263\nDuration                       : 2h 5mn\nBit rate                       : 12.0 Mbps\nWidth                          : 1 920 pixels\nHeight                         : 1 080 pixels\nDisplay aspect ratio           : 16:9\nFrame rate mode                : Constant\nFrame rate                     : 23.976 fps\nBit depth                      : 8 bits\nCompression mode               : Lossy\nBits/(Pixel*Frame)             : 0.242\nStream size                    : 10.5 GiB (87%)\nWriting library                : Lavc56.3.100 h263p\nLanguage                       : English\nDefault                        : Yes\nForced                         : No\n\nAudio #1\nID                             : 2\nFormat                         : E-AC-3\nFormat/Info                    : Audio Coding 3\nFormat settings, Endianness    : Big\nCodec ID                       : A_EAC3\nDuration                       : 2h 5mn\nBit rate mode                  : Constant\nBit rate                       : 768 Kbps\nChannel(s)                     : 6 channels\nChannel positions              : Front: L C R, Side: L R, LFE\nSampling rate                  : 48.0 KHz\nBit depth                      : 32 bits\nCompression mode               : Lossy\nStream size                    : 689 MiB (6%)\nWriting library                : Lavc56.3.100 eac3\nLanguage                       : English\nDefault                        : Yes\nForced                         : No\n\nAudio #2\nID                             : 3\nFormat                         : E-AC-3\nFormat/Info                    : Audio Coding 3\nFormat settings, Endianness    : Big\nCodec ID                       : A_EAC3\nDuration                       : 2h 5mn\nBit rate mode                  : Constant\nBit rate                       : 768 Kbps\nChannel(s)                     : 2 channels\nChannel positions              : Front: L R\nSampling rate                  : 48.0 KHz\nBit depth                      : 32 bits\nCompression mode               : Lossy\nStream size                    : 689 MiB (6%)\nWriting library                : Lavc56.3.100 eac3\nLanguage                       : French\nDefault                        : Yes\nForced                         : No\n\nMenu\n\nChapters : 51 \n\n\nEnjoy and seed, please.\n\nkind regards","torrent":{"xt":"urn:btih:cf74547ee0d0663e5d6278debaef810e404c7533","amp;dn":"Marathon+Man.%281976%29.Rip.H263.1080p%40DD%2B+Edition-%28US%2CFR%29%2BSubs.mkv","amp;tr":["udp%3A%2F%2Ftracker.openbittorrent.com%3A80","udp%3A%2F%2Fopen.demonii.com%3A1337","udp%3A%2F%2Ftracker.coppersurfer.tk%3A6969","udp%3A%2F%2Fexodus.desync.com%3A6969"],"infoHash":"cf74547ee0d0663e5d6278debaef810e404c7533","infoHashBuffer":{"type":"Buffer","data":[207,116,84,126,224,208,102,62,93,98,120,222,186,239,129,14,64,76,117,51]},"announce":[],"urlList":[]}}